<?xml version="1.0" encoding="UTF-8" standalone="no"?>
<svg
   xmlns="http://www.w3.org/2000/svg"
   width="295.67999"
   height="219.5162"
   viewBox="0 0 78.231995 58.080329"
   version="1.1"
   id="svg8">
  <title
     id="title4931">Xenia Emulator Logo</title>
  <defs
     id="defs2">
    <filter
       style="color-interpolation-filters:sRGB"
       id="filter897"/>
  </defs>
  <g
     id="layer4"
     style="display:none">
    <path
       style="fill:#5fa7ff;fill-opacity:1;stroke:none;stroke-width:0.26458332px;stroke-linecap:butt;stroke-linejoin:miter;stroke-opacity:1"
       d="M 25.001999,37.483573 32.661492,16.48872 H 42.60392 L 54.931018,25.229719 44.469364,37.483573 H 30.655 l 0.638174,-1.536894 0.61987,-1.492815 h 8.557868 L 51.659895,25.229719 40.470912,20.677032 h -5.840899 l -4.882914,16.806541 z"
       id="path891"/>
    <path
       id="path893"
       d="M 51.306206,-2.9783666 60.024032,-23.97322 h 8.884095 l 12.327098,8.740999 -10.461654,12.2538544 H 56.959207 l 1.258044,-3.029709 h 8.557868 l 10.858254,-9.2241454 -10.858254,-4.552687 h -3.808841 l -6.914972,16.8065414 z"
       style="fill:#5fa7ff;fill-opacity:1;stroke:none;stroke-width:0.26458332px;stroke-linecap:butt;stroke-linejoin:miter;stroke-opacity:1" />
    <path
       id="path895"
       d="M 22.833545,-2.9743272 30.493038,-23.96918 h 9.942428 L 52.762564,-15.228181 42.30091,-2.9743272 H 28.486546 l 0.638174,-1.536894 0.61987,-1.492815 h 8.557868 l 11.188983,-9.2241448 -11.188983,-4.552687 h -5.840899 l -4.882914,16.8065408 z"
       style="fill:#5fa7ff;fill-opacity:1;stroke:none;stroke-width:0.26458332px;stroke-linecap:butt;stroke-linejoin:miter;stroke-opacity:1" />
  </g>
  <g
     id="layer2"
     style="display:inline"
     transform="translate(1.3476564e-7,-6.6036226e-6)">
    <path
       style="fill:#555555;fill-opacity:1;stroke:none;stroke-width:0.99999994px;stroke-linecap:butt;stroke-linejoin:miter;stroke-opacity:1"
       d="M 147.83594,0.3203125 12.480469,96.320312 147.83594,192.00391 283.19141,96.320312 Z"
       transform="scale(0.26458333)"
       id="path4541"/>
    <path
       style="fill:#555555;fill-opacity:1;stroke:none;stroke-width:0.26458332px;stroke-linecap:butt;stroke-linejoin:miter;stroke-opacity:1"
       d="M 37.759968,55.625751 3.3010906,31.327492 v -3.38894 L 37.761002,52.239909 Z"
       id="path4587"/>
    <path
       style="fill:#555555;fill-opacity:1;stroke:none;stroke-width:0.26458332px;stroke-linecap:butt;stroke-linejoin:miter;stroke-opacity:1"
       d="M 40.471949,55.625751 74.930827,31.327492 v -3.38894 L 40.470914,52.239909 Z"
       id="path4587-9"/>
    <path
       style="fill:#555555;fill-opacity:1;stroke:none;stroke-width:0.26458332px;stroke-linecap:butt;stroke-linejoin:miter;stroke-opacity:1"
       d="m 71.203984,36.746688 4.569981,-3.240519 c 0,0 2.457665,1.410445 2.34164,2.561439 -0.135713,1.346308 -1.934756,2.261499 -3.281851,2.389168 -1.331512,0.126192 -3.62977,-1.710088 -3.62977,-1.710088 z"
       id="path4689"/>
    <path
       id="path4691"
       d="m 64.264758,41.690684 4.569981,-3.240519 c 0,0 2.457665,1.410445 2.34164,2.561439 -0.135713,1.346308 -1.934756,2.261499 -3.281851,2.389168 -1.331512,0.126192 -3.62977,-1.710088 -3.62977,-1.710088 z"
       style="fill:#555555;fill-opacity:1;stroke:none;stroke-width:0.26458332px;stroke-linecap:butt;stroke-linejoin:miter;stroke-opacity:1" />
    <path
       style="fill:#555555;fill-opacity:1;stroke:none;stroke-width:0.26458332px;stroke-linecap:butt;stroke-linejoin:miter;stroke-opacity:1"
       d="m 57.333621,46.605471 4.569981,-3.240519 c 0,0 2.457665,1.410445 2.34164,2.561439 -0.135713,1.346308 -1.934756,2.261499 -3.281851,2.389168 -1.331512,0.126192 -3.62977,-1.710088 -3.62977,-1.710088 z"
       id="path4693"/>
    <path
       id="path4695"
       d="m 50.426294,51.503375 4.569981,-3.240519 c 0,0 2.457665,1.410445 2.34164,2.561439 -0.135713,1.346308 -1.934756,2.261499 -3.281851,2.389168 -1.331512,0.126192 -3.62977,-1.710088 -3.62977,-1.710088 z"
       style="fill:#555555;fill-opacity:1;stroke:none;stroke-width:0.26458332px;stroke-linecap:butt;stroke-linejoin:miter;stroke-opacity:1" />
    <path
       style="fill:#555555;fill-opacity:1;stroke:none;stroke-width:0.26458332px;stroke-linecap:butt;stroke-linejoin:miter;stroke-opacity:1"
       d="m 43.574294,56.362047 4.569981,-3.240519 c 0,0 2.457665,1.410445 2.34164,2.561439 -0.135713,1.346308 -1.934756,2.261499 -3.281851,2.389168 -1.331512,0.126192 -3.62977,-1.710088 -3.62977,-1.710088 z"
       id="path4697"/>
    <path
       id="path4699"
       d="m 7.0251337,36.74867 -4.569981,-3.240519 c 0,0 -2.45766498,1.410445 -2.34163998,2.561439 0.135713,1.346308 1.93475598,2.261499 3.28185098,2.389168 1.331512,0.126192 3.62977,-1.710088 3.62977,-1.710088 z"
       style="fill:#555555;fill-opacity:1;stroke:none;stroke-width:0.26458332px;stroke-linecap:butt;stroke-linejoin:miter;stroke-opacity:1" />
    <path
       style="fill:#555555;fill-opacity:1;stroke:none;stroke-width:0.26458332px;stroke-linecap:butt;stroke-linejoin:miter;stroke-opacity:1"
       d="M 13.96436,41.692666 9.3943787,38.452147 c 0,0 -2.457665,1.410445 -2.34164,2.561439 0.135713,1.346308 1.934756,2.261499 3.2818513,2.389168 1.331512,0.126192 3.62977,-1.710088 3.62977,-1.710088 z"
       id="path4701"/>
    <path
       id="path4703"
       d="m 20.895497,46.607453 -4.569981,-3.240519 c 0,0 -2.457665,1.410445 -2.34164,2.561439 0.135713,1.346308 1.934756,2.261499 3.281851,2.389168 1.331512,0.126192 3.62977,-1.710088 3.62977,-1.710088 z"
       style="fill:#555555;fill-opacity:1;stroke:none;stroke-width:0.26458332px;stroke-linecap:butt;stroke-linejoin:miter;stroke-opacity:1" />
    <path
       style="fill:#555555;fill-opacity:1;stroke:none;stroke-width:0.26458332px;stroke-linecap:butt;stroke-linejoin:miter;stroke-opacity:1"
       d="m 27.802823,51.505357 -4.569981,-3.240519 c 0,0 -2.457664,1.410445 -2.341639,2.561439 0.135713,1.346308 1.934755,2.261499 3.28185,2.389168 1.331512,0.126192 3.62977,-1.710088 3.62977,-1.710088 z"
       id="path4705"/>
    <path
       id="path4707"
       d="M 34.654824,56.364029 30.084842,53.12351 c 0,0 -2.457665,1.410445 -2.34164,2.561439 0.135713,1.346308 1.934756,2.261499 3.281851,2.389168 1.331513,0.126192 3.629771,-1.710088 3.629771,-1.710088 z"
       style="fill:#555555;fill-opacity:1;stroke:none;stroke-width:0.26458332px;stroke-linecap:butt;stroke-linejoin:miter;stroke-opacity:1" />
    <g
       aria-label="Xenia SVG Logo remake By Kwasior/@ThisKwasior "
       style="font-style:normal;font-weight:normal;font-size:0.96981573px;line-height:1.25;font-family:sans-serif;letter-spacing:0px;word-spacing:0px;display:inline;fill:#000000;fill-opacity:1;stroke:none;stroke-width:0.02424539"
       id="text4767" />
  </g>
  <g
     id="layer3"
     style="display:inline">
    <g
       style="display:inline;stroke:none"
       id="g4729"
       transform="matrix(0.16482667,0,0,0.16482667,17.277181,7.5481563)">
      <g
         style="display:none;stroke:none"
         transform="translate(0,-32.41665)"
         id="layer1-9">
      </g>
      <g
         id="layer3-0"
         style="stroke:none">
        <path
           id="path1423"
           d="m 202.85524,181.59614 h 18.90932 c -20.05514,-22.63362 -39.66899,-45.48788 -61.63944,-67.16385 l -22.1116,14.93006 c 22.99818,17.41126 44.08436,34.82253 64.84172,52.23379 z"
           style="fill:#5fa7ff;fill-opacity:1;stroke:none;stroke-width:0.26458332px;stroke-linecap:butt;stroke-linejoin:miter;stroke-opacity:1" />
        <path
           id="path1425"
           d="m 16.10067,54.242215 c 30.78054,17.495191 61.561079,34.135784 92.34161,54.656615 L 131.82837,87.250002 C 119.3409,75.87622 106.05123,64.903538 92.138849,54.242215 Z"
           style="fill:#5fa7ff;fill-opacity:1;stroke:none;stroke-width:0.26458332px;stroke-linecap:butt;stroke-linejoin:miter;stroke-opacity:1" />
        <path
           id="path1427"
           d="M 49.472607,181.61756 H 65.4421 C 190.49084,76.095929 198.68267,85.851471 248.38256,54.242211 l -66.05133,-0.0026 C 122.04339,98.699112 86.249078,140.09695 49.472607,181.61756 Z"
           style="fill:#5fa7ff;fill-opacity:1;stroke:none;stroke-width:0.26458332px;stroke-linecap:butt;stroke-linejoin:miter;stroke-opacity:1" />
      </g>
    </g>
  </g>
</svg>
